<svg xmlns="http://www.w3.org/2000/svg" xmlns:xlink="http://www.w3.org/1999/xlink" viewBox="0 0 23.58 28.1"><defs><style>.cls-1{fill:url(#linear-gradient);}.cls-2{fill:url(#linear-gradient-2);}</style><linearGradient id="linear-gradient" x1="3.26" y1="23.11" x2="17.39" y2="6.27" gradientUnits="userSpaceOnUse"><stop offset="0" stop-color="#12c3f4"/><stop offset="1" stop-color="#47b972"/></linearGradient><linearGradient id="linear-gradient-2" x1="17.48" y1="9.32" x2="22.27" y2="3.61" gradientUnits="userSpaceOnUse"><stop offset="0" stop-color="#f15a29"/><stop offset="1" stop-color="#fbaa26"/></linearGradient></defs><title>Asset 1</title><g id="Layer_2" data-name="Layer 2"><g id="Layer_1-2" data-name="Layer 1"><path class="cls-1" d="M2.53,1.48C5,1,7.44.44,9.91,0c0,1.55,0,3.1,0,4.65,1.26-.17,2.48-.51,3.73-.73a6.42,6.42,0,0,1,0,1.16c0,.57,0,1.15,0,1.73-.1,1.56.1,3.12,0,4.68-1.24.27-2.49.46-3.72.78,0,1.75,0,3.51,0,5.27a3.43,3.43,0,0,0,.3,1.64,3.14,3.14,0,0,0,2.3,1.76,3.23,3.23,0,0,0,1.66-.18,3.11,3.11,0,0,0,1.91-2.26,9.73,9.73,0,0,0,.08-1.87c0-.9,0-1.79,0-2.69,1.84-.39,3.67-.74,5.51-1.13.63-.11,1.24-.29,1.88-.35,0,1.36,0,2.72,0,4.08a14.36,14.36,0,0,1-.19,3.07A10.55,10.55,0,0,1,2.52,16.9c-.09-1,0-2.07-.06-3.1-.81.08-1.6.33-2.42.45a7.32,7.32,0,0,1,0-.81C0,11.2,0,9,0,6.72c.8-.23,1.62-.33,2.43-.52,0-1.07,0-2.14,0-3.22A8.33,8.33,0,0,1,2.53,1.48Z"/><path class="cls-2" d="M19.08,2.83a3.7,3.7,0,0,1,4.47,3.09,4.12,4.12,0,0,1-.14,1.71,3.75,3.75,0,0,1-2.77,2.47,3.72,3.72,0,0,1-1.56-7.27Z"/></g></g></svg>