<svg xmlns="http://www.w3.org/2000/svg" xmlns:xlink="http://www.w3.org/1999/xlink" viewBox="0 0 142.79 28.33"><defs><style>.cls-1{fill:#6d6e71;}.cls-2{fill:#414042;}.cls-3{fill:url(#linear-gradient);}.cls-4{fill:url(#linear-gradient-2);}</style><linearGradient id="linear-gradient" x1="3.26" y1="23.11" x2="17.39" y2="6.27" gradientUnits="userSpaceOnUse"><stop offset="0" stop-color="#12c3f4"/><stop offset="1" stop-color="#47b972"/></linearGradient><linearGradient id="linear-gradient-2" x1="17.48" y1="9.32" x2="22.27" y2="3.61" gradientUnits="userSpaceOnUse"><stop offset="0" stop-color="#f15a29"/><stop offset="1" stop-color="#fbaa26"/></linearGradient></defs><title>Asset 3</title><g id="Layer_2" data-name="Layer 2"><g id="Layer_1-2" data-name="Layer 1"><path class="cls-1" d="M42.69,5V7.12H37.21v16H34.77v-16H29.32V5Z"/><path class="cls-1" d="M52,21.06H56v2.08H44.54V21.06h5.14V10.93H45.32V8.86H52ZM50.42,2.92a2.09,2.09,0,0,1,2.51,1.73,2.22,2.22,0,0,1-.08,1A2.08,2.08,0,0,1,51.3,7a2.09,2.09,0,0,1-.88-4.08Z"/><path class="cls-1" d="M69.92,12.91V23.14H67.61V13.22c0-1.71-.68-2.62-2.34-2.62s-2.73.85-4.65,3.29v9.25H58.31V8.86h1.74l.44,3.35C61.94,9.87,63.76,8.6,66,8.6,68.44,8.6,69.92,10,69.92,12.91Z"/><path class="cls-1" d="M82.18,8.86h2.54l-5,14.59c-1.15,3.35-3.56,4.88-7.43,4.88V26.15c3,0,4.54-1,5.24-3H76.31L71.43,8.86H74l4.1,12.93Z"/><path class="cls-2" d="M98,5h2.44V23.14h-2.7l-7-13.45V23.14H88.3V5H91l7,13.4Z"/><path class="cls-2" d="M102.14,16.39c0-5,2.39-7.79,6.52-7.79,3.87,0,6,2.54,6,7,0,5-2.39,7.82-6.55,7.82C104.3,23.4,102.14,20.86,102.14,16.39ZM112.25,16c0-3.82-1-5.2-3.85-5.2s-3.84,1.43-3.84,5.27,1.06,5.22,3.84,5.22S112.25,19.79,112.25,16Z"/><path class="cls-2" d="M128,10.93h-6.24v7.41c0,1.92.81,2.9,3.07,2.9a8,8,0,0,0,3.17-.67V22.8a10.26,10.26,0,0,1-3.41.6c-3.53,0-5.16-1.95-5.16-4.75V10.93h-3.3V9.43l3.3-.57.54-3.2h1.79v3.2H128Z"/><path class="cls-2" d="M142.77,16.88H132.61c.21,3.17,1.59,4.36,4.21,4.36a9.09,9.09,0,0,0,4.88-1.45V22a10.13,10.13,0,0,1-5.11,1.38c-4,0-6.42-2.42-6.42-7,0-4.73,2.42-7.84,6.7-7.84,3.87,0,5.92,2.52,5.92,7C142.79,16.05,142.79,16.44,142.77,16.88Zm-10.13-2h7.71c-.18-3-1.14-4.13-3.66-4.13S132.85,11.87,132.64,14.88Z"/><path class="cls-3" d="M2.53,1.48C5,1,7.44.44,9.91,0c0,1.55,0,3.1,0,4.65,1.26-.17,2.48-.51,3.73-.73a6.42,6.42,0,0,1,0,1.16c0,.57,0,1.15,0,1.73-.1,1.56.1,3.12,0,4.68-1.24.27-2.49.46-3.72.78,0,1.75,0,3.51,0,5.27a3.43,3.43,0,0,0,.3,1.64,3.14,3.14,0,0,0,2.3,1.76,3.23,3.23,0,0,0,1.66-.18,3.11,3.11,0,0,0,1.91-2.26,9.73,9.73,0,0,0,.08-1.87c0-.9,0-1.79,0-2.69,1.84-.39,3.67-.74,5.51-1.13.63-.11,1.24-.29,1.88-.35,0,1.36,0,2.72,0,4.08a14.36,14.36,0,0,1-.19,3.07A10.55,10.55,0,0,1,2.52,16.9c-.09-1,0-2.07-.06-3.1-.81.08-1.6.33-2.42.45a7.32,7.32,0,0,1,0-.81C0,11.2,0,9,0,6.72c.8-.23,1.62-.33,2.43-.52,0-1.07,0-2.14,0-3.22A8.33,8.33,0,0,1,2.53,1.48Z"/><path class="cls-4" d="M19.08,2.83a3.7,3.7,0,0,1,4.47,3.09,4.12,4.12,0,0,1-.14,1.71,3.75,3.75,0,0,1-2.77,2.47,3.72,3.72,0,0,1-1.56-7.27Z"/></g></g></svg>